<svg xmlns="http://www.w3.org/2000/svg" width="640" height="420" viewBox="0 0 640 420">
<defs>
 <linearGradient id="coat" x1="0" y1="0" x2=".9" y2="1"><stop stop-color="#d49352"/><stop offset=".32" stop-color="#9b562b"/><stop offset=".7" stop-color="#6c351d"/><stop offset="1" stop-color="#301a13"/></linearGradient>
 <linearGradient id="neck" x1="0" y1="0" x2="1" y2="1"><stop stop-color="#c47a3b"/><stop offset=".6" stop-color="#77391f"/><stop offset="1" stop-color="#3b2016"/></linearGradient>
 <linearGradient id="shirt" x2="0" y2="1"><stop stop-color="#4b91b7"/><stop offset="1" stop-color="#173c5a"/></linearGradient>
 <linearGradient id="leather" x2="0" y2="1"><stop stop-color="#dfbb75"/><stop offset="1" stop-color="#754b25"/></linearGradient>
 <filter id="blur"><feGaussianBlur stdDeviation="7"/></filter>
</defs>
<ellipse cx="305" cy="366" rx="220" ry="24" fill="#080d12" opacity=".36" filter="url(#blur)"/>
<!-- rear and front legs, with joints and hooves -->
<g stroke="#442317" stroke-width="24" stroke-linecap="round" stroke-linejoin="round" fill="none">
 <path d="M169 252Q145 291 158 336L145 359"/><path d="M222 263Q212 299 220 341L211 365"/>
 <path d="M365 254Q391 292 389 331L409 357"/><path d="M421 239Q450 275 454 320L471 344"/>
</g>
<g stroke="#c17a40" stroke-width="8" stroke-linecap="round" fill="none"><path d="M154 336l-9 22"/><path d="M220 340l-8 22"/><path d="M389 330l20 25"/><path d="M454 320l17 24"/></g>
<g fill="#1b1716" stroke="#0f1012" stroke-width="4"><path d="M128 356l32 0 3 15-42 0z"/><path d="M195 361l31 0 2 14-42 0z"/><path d="M394 352l31 0 6 14-38 0z"/><path d="M459 340l31 0 7 14-37 0z"/></g>
<!-- tail -->
<path d="M102 209Q58 215 45 264Q28 286 19 268Q29 226 65 195Z" fill="#231713" stroke="#301b14" stroke-width="7"/>
<path d="M91 206Q57 228 42 255" stroke="#69402a" stroke-width="5" fill="none"/>
<!-- torso and shoulder -->
<path d="M112 194Q122 134 185 127Q244 104 314 140Q372 155 402 205Q409 247 370 273Q282 296 190 273Q126 255 112 194Z" fill="url(#coat)" stroke="#321a12" stroke-width="8"/>
<path d="M138 178Q180 135 245 142Q287 149 322 174" fill="none" stroke="#e1a25c" stroke-width="11" opacity=".55"/>
<path d="M145 220Q235 266 350 234" fill="none" stroke="#4a2418" stroke-width="7" opacity=".7"/>
<!-- neck -->
<path d="M337 190Q365 142 384 91Q402 45 449 46Q490 48 505 80Q520 111 483 133L443 149L413 224Z" fill="url(#neck)" stroke="#321a12" stroke-width="8"/>
<path d="M390 100Q407 60 442 58Q468 60 482 82" fill="none" stroke="#e4a35b" stroke-width="8" opacity=".6"/>
<!-- head -->
<path d="M457 65Q487 40 524 59Q548 73 551 98Q553 119 526 131L482 130L456 108Z" fill="url(#coat)" stroke="#321a12" stroke-width="7"/>
<path d="M486 68L499 34L521 66" fill="#4b2618" stroke="#2a1711" stroke-width="6"/>
<path d="M527 77Q552 75 564 91L550 105L526 103Z" fill="#9b572d" stroke="#321a12" stroke-width="5"/>
<ellipse cx="526" cy="84" rx="8" ry="7" fill="#fff5df"/><circle cx="528" cy="84" r="4" fill="#121212"/>
<path d="M549 99Q574 99 564 114Q552 123 533 113" fill="#301b15" stroke="#21140f" stroke-width="4"/>
<circle cx="557" cy="105" r="2.5" fill="#f3c2a1"/>
<!-- mane -->
<path d="M389 91Q368 74 379 42Q394 52 404 64Q398 37 417 20Q431 42 427 60Q450 36 463 43L447 77L421 108Z" fill="#211512" stroke="#26150f" stroke-width="4"/>
<path d="M397 82L389 54M414 76L417 42M431 78L449 52" stroke="#67402a" stroke-width="5" fill="none"/>
<!-- saddle -->
<path d="M178 145Q245 117 310 149L325 194Q256 177 185 200Z" fill="url(#leather)" stroke="#4b2c18" stroke-width="8"/>
<path d="M188 165Q251 146 313 169" fill="none" stroke="#f1d18d" stroke-width="5"/>
<path d="M201 184L204 221M303 179L313 220" stroke="#593719" stroke-width="7"/>
<!-- rider leg and boot -->
<path d="M250 155Q277 184 303 211L286 247L255 233L265 208L229 183Z" fill="#28313a" stroke="#17212b" stroke-width="6"/>
<path d="M268 222L299 235L289 250L256 242Z" fill="#171b20" stroke="#0e1318" stroke-width="5"/>
<!-- rider body -->
<path d="M218 89Q246 78 273 96L293 151L252 176L207 143Z" fill="url(#shirt)" stroke="#172d40" stroke-width="7"/>
<path d="M226 101L270 145M270 105L243 160" stroke="#9dc8d9" stroke-width="4" opacity=".7"/>
<!-- arms and reins -->
<path d="M222 111L190 144L230 170" fill="none" stroke="#98613f" stroke-width="15" stroke-linecap="round"/>
<path d="M279 113L307 144L346 136" fill="none" stroke="#98613f" stroke-width="15" stroke-linecap="round"/>
<path d="M308 145Q369 156 458 119" fill="none" stroke="#dfc17d" stroke-width="5"/>
<path d="M317 153Q381 167 472 129" fill="none" stroke="#35251a" stroke-width="3"/>
<!-- rider face -->
<ellipse cx="246" cy="67" rx="28" ry="33" fill="#9a6547" stroke="#3c241a" stroke-width="6"/>
<path d="M220 66Q224 36 252 37Q274 43 274 64L264 56Q245 48 223 64Z" fill="#261912"/>
<path d="M230 76Q248 83 263 74" fill="none" stroke="#5b3022" stroke-width="4"/>
<!-- llanero hat -->
<path d="M197 49Q244 20 292 47Q279 57 244 55Q216 57 197 49Z" fill="#d0a15b" stroke="#51351f" stroke-width="6"/>
<path d="M215 43Q247 31 277 43" fill="none" stroke="#f2d08c" stroke-width="4"/>
<path d="M201 49Q245 61 287 49" fill="none" stroke="#37271b" stroke-width="4"/>
<!-- highlights -->
<path d="M130 182Q158 151 202 149" fill="none" stroke="#f2bb73" stroke-width="5" opacity=".62"/>
<path d="M350 193Q376 148 390 117" fill="none" stroke="#e6a45c" stroke-width="6" opacity=".52"/>
</svg>